<?xml version="1.0" encoding="UTF-8" standalone="no"?>
<svg
   xmlns:dc="http://purl.org/dc/elements/1.1/"
   xmlns:cc="http://creativecommons.org/ns#"
   xmlns:rdf="http://www.w3.org/1999/02/22-rdf-syntax-ns#"
   xmlns:svg="http://www.w3.org/2000/svg"
   xmlns="http://www.w3.org/2000/svg"
   xmlns:sodipodi="http://sodipodi.sourceforge.net/DTD/sodipodi-0.dtd"
   xmlns:inkscape="http://www.inkscape.org/namespaces/inkscape"
   id="EX"
   width="700"
   height="700"
   viewBox="0 0 700 700.00003"
   version="1.1"
   sodipodi:docname="extra-logo.svg"
   inkscape:version="0.92.3 (2405546, 2018-03-11)"
   inkscape:export-filename="C:\Users\alex\sites\extra-com-br-logo-0.png"
   inkscape:export-xdpi="561.73712"
   inkscape:export-ydpi="561.73712">
  <metadata
     id="metadata21">
    <rdf:RDF>
      <cc:Work
         rdf:about="">
        <dc:format>image/svg+xml</dc:format>
        <dc:type
           rdf:resource="http://purl.org/dc/dcmitype/StillImage" />
        <dc:title></dc:title>
      </cc:Work>
    </rdf:RDF>
  </metadata>
  <defs
     id="defs19" />
  <sodipodi:namedview
     pagecolor="#ffffff"
     bordercolor="#666666"
     borderopacity="1"
     objecttolerance="10"
     gridtolerance="10"
     guidetolerance="10"
     inkscape:pageopacity="0"
     inkscape:pageshadow="2"
     inkscape:window-width="1600"
     inkscape:window-height="838"
     id="namedview17"
     showgrid="false"
     inkscape:zoom="0.62903041"
     inkscape:cx="334.75112"
     inkscape:cy="275.58411"
     inkscape:window-x="-8"
     inkscape:window-y="-8"
     inkscape:window-maximized="1"
     inkscape:current-layer="EX" />
  <g
     id="positivo"
     transform="matrix(2.868007,0,0,2.868007,-116.77747,739.00254)"
     inkscape:export-filename="C:\Users\alex\sites\extra-com-br-logo-4.png"
     inkscape:export-xdpi="97.631531"
     inkscape:export-ydpi="97.631531">
    <path
       id="Path_287"
       data-name="Path 287"
       d="M 43.5,48.626 V 34.783 c 0.8,-4.391 4.6,-3.509 4.6,-3.509 h 28.6 c -2.87,2.99 -10.894,6.674 -10.894,6.674 -9,3.439 -16.865,6.212 -16.865,6.212 -5.9,2.726 -5.443,4.467 -5.443,4.467 z"
       transform="translate(0,-13.226)"
       inkscape:connector-curvature="0"
       style="fill:#ea2227;fill-rule:evenodd" />
    <path
       id="Path_288"
       data-name="Path 288"
       d="m 226.384,41.648 9.132,-11 h -6.764 c -1.629,0.283 -5.8,6.146 -5.8,6.146 -3.243,-5.962 -4.967,-6.113 -4.967,-6.113 h -7.957 l 8.132,11.782 -4.827,5.542 c 0,0 -1.7,2.892 -7.568,3.8 h -7.925 a 3.875,3.875 0 0 1 -2.894,-3.1 v -3.152 l 11.99,-0.146 c 3.632,-0.66 3.79,-5.151 3.79,-5.151 0.816,-10.051 -9.613,-9.91 -9.613,-9.91 -10.493,-0.429 -12.4,3.75 -12.4,3.75 0,0 -3.038,3.523 -1.026,15.707 0,0 1.682,6.146 7.988,6.037 h 12.288 c 7.228,1.038 13.707,-8.693 13.707,-8.693 1.573,2.443 3.106,4.886 3.106,4.886 1.863,3.915 3.684,3.694 3.684,3.694 h 7.912 z M 200.541,34.766 A 2.322,2.322 0 0 1 202.852,37 l 0.049,2.085 c 0,0 0.036,1.627 -1.1,1.835 h -6.813 l -0.04,-4.24 c 0,0 0.246,-2.825 5.593,-1.914 z"
       transform="translate(-95.21,-12.638)"
       inkscape:connector-curvature="0"
       style="fill:#ea2227;fill-rule:evenodd" />
    <path
       id="Path_289"
       data-name="Path 289"
       d="m 343.071,11.265 c 0,0 -6.4,1.6 -7.462,5.189 v 18.508 c 0,0 0.241,7.589 7.389,8.122 0,0 6.167,0.839 6.941,-0.9 v -3.773 c 0,0 -3.606,0.745 -5.523,-0.326 a 2.611,2.611 0 0 1 -1.255,-2.184 v -13.24 h 6.073 a 1.8,1.8 0 0 0 0.915,-1.207 V 17.991 H 343.1 l -0.033,-6.726 z"
       transform="translate(-193.795)"
       inkscape:connector-curvature="0"
       style="fill:#ea2227;fill-rule:evenodd" />
    <path
       id="Path_290"
       data-name="Path 290"
       d="m 383.08,55.113 c 0,0 0.649,0.731 1.137,0.793 h 5.083 a 1.587,1.587 0 0 0 1.342,-1.236 V 37.561 c 0,0 -0.156,-1.774 2.518,-2.429 h 4.594 V 31.9 c 0,0 -0.274,-1.3 -2.877,-1.25 0,0 -11.254,-1.821 -11.745,7.7 l -0.057,16.759 z"
       transform="translate(-225.288,-12.769)"
       inkscape:connector-curvature="0"
       style="fill:#ea2227;fill-rule:evenodd" />
    <path
       id="Path_291"
       data-name="Path 291"
       d="m 438.208,30.449 -6.641,0.1 c -4.434,-0.146 -4.679,1.326 -4.679,1.326 l 0.009,3.288 a 99.377,99.377 0 0 1 10.169,-0.156 3.706,3.706 0 0 1 2.887,4.174 l -9.075,0.17 c 0,0 -5.542,-0.113 -6.971,4.3 0,0 -1.123,5.315 0.448,8.471 0,0 1.029,3.052 7,3.642 l 16.037,0.047 V 40.194 c 0,0 0.325,-9.584 -9.184,-9.745 z m 1.592,21.136 h -5.29 c 0,0 -3.217,0.208 -3.542,-2.047 a 28.558,28.558 0 0 1 -0.024,-4.235 2.688,2.688 0 0 1 2.34,-2.061 53.549,53.549 0 0 1 6.6,-0.127 z"
       transform="translate(-252.114,-12.727)"
       inkscape:connector-curvature="0"
       style="fill:#ea2227;fill-rule:evenodd" />
    <path
       id="Path_292"
       data-name="Path 292"
       d="m 535.239,51.539 1.151,-2.231 c 0,0 -1.2,-1.905 -4.957,-1.373 0,0 -5.642,0.448 -5.052,8.438 0,0 0.33,6.844 7.453,5.5 0,0 1.859,-0.4 2.217,-1.141 l -0.858,-2.3 a 4.36,4.36 0 0 1 -2.948,1 2.764,2.764 0 0 1 -2.179,-2.25 c 0,0 -0.307,-4.882 0.345,-5.58 0,0 1.245,-2.561 4.83,-0.061 z"
       transform="translate(-320.326,-24.265)"
       inkscape:connector-curvature="0"
       style="fill:#045ca9;fill-rule:evenodd" />
    <path
       id="Subtraction_1"
       data-name="Subtraction 1"
       d="m 5.678,14.218 v 0 A 5.562,5.562 0 0 1 2.785,13.483 5.057,5.057 0 0 1 1.133,11.866 6.44,6.44 0 0 1 0.213,9.513 13.624,13.624 0 0 1 0.205,4.744 6.48,6.48 0 0 1 1.465,1.936 5.117,5.117 0 0 1 3.65,0.364 4.3,4.3 0 0 1 4.78,0.093 2.787,2.787 0 0 1 5.555,0 a 9.576,9.576 0 0 1 2.319,0.381 6.312,6.312 0 0 1 2.674,2.463 7.509,7.509 0 0 1 0.943,2.94 10.692,10.692 0 0 1 -0.183,3.5 7.72,7.72 0 0 1 -1.159,2.8 A 5.059,5.059 0 0 1 8.613,13.537 4.232,4.232 0 0 1 6.58,14.17 H 6.572 A 8.26,8.26 0 0 1 5.678,14.218 Z M 5.4,2.777 a 1.556,1.556 0 0 0 -0.974,0.389 3.392,3.392 0 0 0 -0.96,2.418 21.153,21.153 0 0 0 0.387,4.849 3.066,3.066 0 0 0 2,1.224 c 0.721,0 1.348,-0.539 1.863,-1.6 A 21.891,21.891 0 0 0 7.839,4.991 3.77,3.77 0 0 0 7.548,3.853 2.119,2.119 0 0 0 6.983,3.071 1.557,1.557 0 0 0 5.961,2.715 2.381,2.381 0 0 0 5.433,2.779 Z"
       transform="translate(217.586,23.53)"
       inkscape:connector-curvature="0"
       style="fill:#045ca9" />
    <path
       id="Path_295"
       data-name="Path 295"
       d="m 602.685,48.676 c 0,0 1.095,1.137 0.665,12.66 h 3.425 v -9.877 c 0,0 2.759,-2.561 3.476,0.213 v 9.617 h 3.26 v -9.566 c 0,0 2.5,-2.722 3.528,-0.325 v 10 h 3.377 V 50.313 c 0,0 -1.472,-5.448 -7.118,-0.821 0,0 -2.118,-4.014 -6.958,-0.062 l -0.66,-1.783 -3,1.028 z"
       transform="translate(-370.975,-24.124)"
       inkscape:connector-curvature="0"
       style="fill:#045ca9;fill-rule:evenodd" />
    <path
       id="Path_296"
       data-name="Path 296"
       d="m 695.714,36.529 a 6.475,6.475 0 0 0 -2.83,1.189 l -0.047,-6.849 -3.378,0.726 v 16.349 l -0.646,2.118 3.156,0.552 0.708,-0.934 c 0,0 3.2,2.934 6.406,-1.033 a 7.18,7.18 0 0 0 1.406,-4.783 c 0,0 0.932,-7.064 -4.775,-7.335 z m 1.415,7.825 a 4.457,4.457 0 0 1 -0.887,2.816 c -2.207,1.873 -3.3,0.4 -3.3,0.4 V 40 c 2.717,-1.9 3.754,0.4 3.754,0.4 a 7.125,7.125 0 0 1 0.433,3.955 z"
       transform="translate(-428.113,-13.005)"
       inkscape:connector-curvature="0"
       style="fill:#045ca9;fill-rule:evenodd" />
    <path
       id="Path_297"
       data-name="Path 297"
       d="m 731.761,51.2 v 10.256 h 3.368 v -9.18 a 2.85,2.85 0 0 1 3.424,-1.245 l 1.1,-2.877 a 3.7,3.7 0 0 0 -4.858,1.675 L 733.828,47.82 731.1,48.8 a 21.191,21.191 0 0 1 0.656,2.4 z"
       transform="translate(-456.17,-24.243)"
       inkscape:connector-curvature="0"
       style="fill:#045ca9;fill-rule:evenodd" />
    <path
       id="Path_298"
       data-name="Path 298"
       d="m 667.612,74.966 a 2.477,2.477 0 0 0 -2.552,2.457 2.606,2.606 0 0 0 2.443,2.594 2.422,2.422 0 0 0 2.66,-2.5 2.547,2.547 0 0 0 -2.552,-2.547 z"
       transform="translate(-412.355,-42.259)"
       inkscape:connector-curvature="0"
       style="fill:#045ca9;fill-rule:evenodd" />
    <path
       id="Path_299"
       data-name="Path 299"
       d="m 506.161,74.97 a 2.45,2.45 0 0 0 -2.453,2.665 c 0,0 0.274,2.594 2.491,2.325 a 2.448,2.448 0 0 0 2.5,-2.325 c 0,0 0.387,-2.5 -2.538,-2.665 z"
       transform="translate(-305.313,-42.262)"
       inkscape:connector-curvature="0"
       style="fill:#045ca9;fill-rule:evenodd" />
    <path
       id="Path_300"
       data-name="Path 300"
       d="m 43.512,56.6 v -5.765 c 0.238,-1.311 3.483,-4 8.809,-5.533 4.326,-1.684 9.495,-3.127 14.03,-5.264 a 63.057,63.057 0 0 0 13.443,-8.623 h 7.384 C 81.669,39.976 65.442,46.282 65.442,46.282 56.009,49.442 49.478,51.989 49.478,51.989 43.569,54.7 43.512,56.6 43.512,56.6 Z"
       transform="translate(-0.016,-13.368)"
       inkscape:connector-curvature="0"
       style="fill:#045ca9;fill-rule:evenodd" />
  </g>
  <g
     id="positivo-7"
     transform="matrix(5.8004325,0,0,5.8004325,-2889.1041,-237.71854)"
     inkscape:export-filename="C:\Users\alex\sites\extra-com-br-logo-5.png"
     inkscape:export-xdpi="133.7796"
     inkscape:export-ydpi="133.7796">
    <path
       id="Path_287-9"
       data-name="Path 287"
       d="m 557.8276,81.502531 v -8.079525 c 0.46693,-2.562826 2.68482,-2.048044 2.68482,-2.048044 h 16.6925 c -1.67509,1.745127 -6.35832,3.895309 -6.35832,3.895309 -5.25289,2.007187 -9.84333,3.62566 -9.84333,3.62566 -3.44356,1.591042 -3.17683,2.607184 -3.17683,2.607184 z"
       inkscape:connector-curvature="0"
       style="fill:#ea2227;fill-rule:evenodd;stroke-width:0.58365422" />
    <path
       id="Path_300-7"
       data-name="Path 300"
       d="m 557.82527,86.073709 v -3.364765 c 0.13891,-0.76517 2.03287,-2.334617 5.14141,-3.229359 2.52488,-0.982874 5.54179,-1.825087 8.18867,-3.072355 a 36.803483,36.803483 0 0 0 7.84606,-5.032851 h 4.30971 c -3.21535,4.996663 -12.68632,8.677187 -12.68632,8.677187 -5.5056,1.844348 -9.31745,3.330915 -9.31745,3.330915 -3.44881,1.582285 -3.48208,2.691228 -3.48208,2.691228 z"
       inkscape:connector-curvature="0"
       style="fill:#045ca9;fill-rule:evenodd;stroke-width:0.58365422" />
    <path
       id="Path_292-4-4"
       data-name="Path 292"
       d="m 559.18162,124.80614 0.71276,-1.38155 c 0,0 -0.7431,-1.17966 -3.06963,-0.85022 0,0 -3.49381,0.27742 -3.12845,5.22523 0,0 0.20434,4.23816 4.61527,3.40588 0,0 1.15119,-0.2477 1.37288,-0.70656 l -0.53131,-1.42427 a 2.6999353,2.6999353 0 0 1 -1.82555,0.61924 1.7116103,1.7116103 0 0 1 -1.34935,-1.39331 c 0,0 -0.19012,-3.02318 0.21363,-3.45543 0,0 0.77097,-1.58591 2.991,-0.0378 z"
       inkscape:connector-curvature="0"
       style="fill:#045ca9;fill-rule:evenodd;stroke-width:0.61925119" />
    <path
       id="Subtraction_1-1-4"
       data-name="Subtraction 1"
       d="m 564.35299,131.29218 v 0 a 3.4442753,3.4442753 0 0 1 -1.79149,-0.45515 3.1315535,3.1315535 0 0 1 -1.023,-1.00132 3.9879778,3.9879778 0 0 1 -0.56972,-1.4571 8.4366786,8.4366786 0 0 1 -0.006,-2.95322 4.0127479,4.0127479 0 0 1 0.78025,-1.73885 3.1687085,3.1687085 0 0 1 1.35308,-0.97346 2.6627802,2.6627802 0 0 1 0.69975,-0.16782 1.7258531,1.7258531 0 0 1 0.47992,-0.0576 5.9299497,5.9299497 0 0 1 1.43604,0.23594 3.9087137,3.9087137 0 0 1 1.65588,1.5252 4.6499575,4.6499575 0 0 1 0.58396,1.82062 6.621034,6.621034 0 0 1 -0.11327,2.16737 4.7806194,4.7806194 0 0 1 -0.71772,1.7339 3.1327919,3.1327919 0 0 1 -0.95117,0.89977 2.6206711,2.6206711 0 0 1 -1.25893,0.392 h -0.006 a 5.1150152,5.1150152 0 0 1 -0.5536,0.0297 z m -0.17215,-7.08486 a 0.96355491,0.96355491 0 0 0 -0.60315,0.2409 2.1005001,2.1005001 0 0 0 -0.5945,1.49733 13.099021,13.099021 0 0 0 0.23967,3.00276 1.8986242,1.8986242 0 0 0 1.23849,0.75797 c 0.44649,0 0.83475,-0.33378 1.15367,-0.9908 a 13.556028,13.556028 0 0 0 0.0761,-3.13713 2.3345772,2.3345772 0 0 0 -0.1802,-0.70471 1.3121933,1.3121933 0 0 0 -0.34988,-0.48424 0.96417415,0.96417415 0 0 0 -0.63287,-0.22047 1.4744371,1.4744371 0 0 0 -0.32697,0.0397 z"
       inkscape:connector-curvature="0"
       style="fill:#045ca9;stroke-width:0.61925119" />
    <path
       id="Path_295-8-2"
       data-name="Path 295"
       d="m 569.58318,123.12053 c 0,0 0.67808,0.7041 0.4118,7.83973 h 2.12095 v -6.11634 c 0,0 1.7085,-1.58591 2.15251,0.13189 v 5.95534 h 2.01876 v -5.92375 c 0,0 1.54811,-1.6856 2.18472,-0.20126 v 6.19251 h 2.0912 v -6.86439 c 0,0 -0.91154,-3.37368 -4.40783,-0.5084 0,0 -1.31157,-2.48568 -4.30875,-0.0384 l -0.4087,-1.10412 -1.85775,0.63659 z"
       inkscape:connector-curvature="0"
       style="fill:#045ca9;fill-rule:evenodd;stroke-width:0.61925119" />
    <path
       id="Path_296-2-1"
       data-name="Path 296"
       d="m 591.80872,122.48396 a 4.0096517,4.0096517 0 0 0 -1.75248,0.73628 l -0.0291,-4.24125 -2.09184,0.44957 v 10.12414 l -0.40003,1.31157 1.95436,0.34183 0.43843,-0.57837 c 0,0 1.98161,1.81687 3.96691,-0.63969 a 4.4462238,4.4462238 0 0 0 0.87067,-2.96188 c 0,0 0.57716,-4.3744 -2.95693,-4.5422 z m 0.87625,4.84564 a 2.7600026,2.7600026 0 0 1 -0.54927,1.74381 c -1.36669,1.15985 -2.04354,0.2477 -2.04354,0.2477 v -4.68774 c 1.68251,-1.17658 2.32467,0.24772 2.32467,0.24772 a 4.4121649,4.4121649 0 0 1 0.26814,2.44911 z"
       inkscape:connector-curvature="0"
       style="fill:#045ca9;fill-rule:evenodd;stroke-width:0.61925119" />
    <path
       id="Path_297-2-7"
       data-name="Path 297"
       d="m 596.75656,124.60985 v 6.35104 h 2.08563 v -5.68473 a 1.764866,1.764866 0 0 1 2.12032,-0.77097 l 0.68117,-1.78159 a 2.2912295,2.2912295 0 0 0 -3.00831,1.03726 l -0.59883,-1.2441 -1.68932,0.60688 a 13.122552,13.122552 0 0 1 0.40623,1.48621 z"
       inkscape:connector-curvature="0"
       style="fill:#045ca9;fill-rule:evenodd;stroke-width:0.61925119" />
    <path
       id="Path_298-5-9"
       data-name="Path 298"
       d="m 584.16469,128.17053 a 1.5338852,1.5338852 0 0 0 -1.58032,1.5215 1.6137687,1.6137687 0 0 0 1.51282,1.60636 1.4998264,1.4998264 0 0 0 1.64721,-1.54815 1.5772329,1.5772329 0 0 0 -1.58033,-1.57723 z"
       inkscape:connector-curvature="0"
       style="fill:#045ca9;fill-rule:evenodd;stroke-width:0.61925119" />
    <path
       id="Path_299-1-4"
       data-name="Path 299"
       d="m 550.47185,128.17116 a 1.5171656,1.5171656 0 0 0 -1.51901,1.6503 c 0,0 0.16967,1.60634 1.54255,1.43975 a 1.515927,1.515927 0 0 0 1.54813,-1.43975 c 0,0 0.23964,-1.54813 -1.57167,-1.6503 z"
       inkscape:connector-curvature="0"
       style="fill:#045ca9;fill-rule:evenodd;stroke-width:0.61925119" />
  </g>
  <path
     id="Path_288-1-6"
     data-name="Path 288"
     d="m 290.00708,355.97469 44.32423,-53.39095 h -32.83062 c -7.90668,1.3736 -28.15158,29.83099 -28.15158,29.83099 -15.74064,-28.9379 -24.10846,-29.67084 -24.10846,-29.67084 h -38.62107 l 39.47049,57.18658 -23.42894,26.89933 c 0,0 -8.25134,14.03699 -36.73297,18.44416 h -38.4658 a 18.808185,18.808185 0 0 1 -14.04668,-15.04655 v -15.29894 l 58.19615,-0.70864 c 17.62873,-3.20346 18.39566,-25.00154 18.39566,-25.00154 3.96059,-48.78477 -46.65891,-48.10038 -46.65891,-48.10038 -50.93012,-2.08224 -60.18616,18.20147 -60.18616,18.20147 0,0 -14.745623,17.09968 -4.97991,76.23746 0,0 8.16394,29.83099 38.77155,29.30193 h 59.64254 c 35.08275,5.03814 66.53003,-42.19344 66.53003,-42.19344 7.63494,11.85764 15.07567,23.71529 15.07567,23.71529 9.04247,19.00234 17.88112,17.92966 17.88112,17.92966 H 338.4861 Z M 164.57226,322.57134 a 11.270349,11.270349 0 0 1 11.21699,10.84327 l 0.23782,10.12001 c 0,0 0.17459,7.897 -5.33912,8.90656 h -33.06838 l -0.19432,-20.57982 c 0,0 1.19402,-13.71176 27.14689,-9.29002 z"
     inkscape:connector-curvature="0"
     style="fill:#ea2227;fill-rule:evenodd;stroke-width:4.85372496"
     inkscape:export-filename="C:\Users\alex\sites\extra-com-br-logo-5.png"
     inkscape:export-xdpi="133.7796"
     inkscape:export-ydpi="133.7796" />
  <path
     id="Path_289-2-6"
     data-name="Path 289"
     d="m 377.86925,269.84535 c 0,0 -31.06387,7.76597 -36.21854,25.18599 v 89.83275 c 0,0 1.16977,36.8349 35.86419,39.42195 0,0 29.9329,4.07225 33.68972,-4.36837 v -18.31312 c 0,0 -17.50258,3.61605 -26.80716,-1.5823 a 12.673076,12.673076 0 0 1 -6.09139,-10.60053 v -64.26334 h 29.47664 a 8.7367054,8.7367054 0 0 0 4.44116,-5.85843 v -16.80844 h -34.21391 l -0.16009,-32.64616 z"
     inkscape:connector-curvature="0"
     style="fill:#ea2227;fill-rule:evenodd;stroke-width:4.85372496"
     inkscape:export-filename="C:\Users\alex\sites\extra-com-br-logo-5.png"
     inkscape:export-xdpi="133.7796"
     inkscape:export-ydpi="133.7796" />
  <path
     id="Path_290-3-0"
     data-name="Path 290"
     d="m 419.20353,420.6943 c 0,0 3.1501,3.54806 5.5187,3.84899 h 24.67151 a 7.7028618,7.7028618 0 0 0 6.51365,-5.99922 v -83.04241 c 0,0 -0.75719,-8.61051 12.22168,-11.78967 h 22.29804 v -15.68727 c 0,0 -1.32993,-6.30983 -13.96415,-6.06714 0,0 -54.62382,-8.83863 -57.00705,37.3737 l -0.27668,81.34358 z"
     inkscape:connector-curvature="0"
     style="fill:#ea2227;fill-rule:evenodd;stroke-width:4.85372496"
     inkscape:export-filename="C:\Users\alex\sites\extra-com-br-logo-5.png"
     inkscape:export-xdpi="133.7796"
     inkscape:export-ydpi="133.7796" />
  <path
     id="Path_291-4-7"
     data-name="Path 291"
     d="m 556.57366,301.18584 -32.23357,0.48549 c -21.52141,-0.70863 -22.71061,6.43604 -22.71061,6.43604 l 0.0464,15.95902 a 482.34863,482.34863 0 0 1 49.35751,-0.75712 17.987905,17.987905 0 0 1 14.01268,20.2594 l -44.04755,0.82517 c 0,0 -26.89933,-0.54872 -33.83532,20.871 0,0 -5.45072,25.79754 2.17447,41.1159 0,0 4.99452,14.81355 33.97609,17.67728 l 77.83914,0.22796 v -75.80063 c 0,0 1.57748,-46.51814 -44.57656,-47.29958 z m 7.72717,102.58836 h -25.67626 c 0,0 -15.61441,1.00956 -17.1919,-9.93562 a 138.61268,138.61268 0 0 1 -0.11658,-20.55552 13.046813,13.046813 0 0 1 11.35771,-10.00353 259.91212,259.91212 0 0 1 32.03463,-0.61642 z"
     inkscape:connector-curvature="0"
     style="fill:#ea2227;fill-rule:evenodd;stroke-width:4.85372496"
     inkscape:export-filename="C:\Users\alex\sites\extra-com-br-logo-5.png"
     inkscape:export-xdpi="133.7796"
     inkscape:export-ydpi="133.7796" />
</svg>
